<svg id="visual" viewBox="0 0 1920 1080" width="1920" height="1080" xmlns="http://www.w3.org/2000/svg" xmlns:xlink="http://www.w3.org/1999/xlink" version="1.1"><rect x="0" y="0" width="1920" height="1080" fill="#56b5d8"></rect><path d="M0 791L274 846L549 707L823 802L1097 759L1371 853L1646 722L1920 784L1920 1081L1646 1081L1371 1081L1097 1081L823 1081L549 1081L274 1081L0 1081Z" fill="#3ccf77"></path><path d="M0 756L274 785L549 773L823 788L1097 851L1371 875L1646 853L1920 758L1920 1081L1646 1081L1371 1081L1097 1081L823 1081L549 1081L274 1081L0 1081Z" fill="#3dc56b"></path><path d="M0 805L274 828L549 885L823 910L1097 872L1371 866L1646 887L1920 903L1920 1081L1646 1081L1371 1081L1097 1081L823 1081L549 1081L274 1081L0 1081Z" fill="#3dbc5e"></path><path d="M0 874L274 877L549 824L823 853L1097 842L1371 861L1646 920L1920 837L1920 1081L1646 1081L1371 1081L1097 1081L823 1081L549 1081L274 1081L0 1081Z" fill="#3db252"></path><path d="M0 861L274 960L549 956L823 942L1097 901L1371 905L1646 959L1920 873L1920 1081L1646 1081L1371 1081L1097 1081L823 1081L549 1081L274 1081L0 1081Z" fill="#3ca946"></path><path d="M0 979L274 979L549 912L823 886L1097 906L1371 946L1646 894L1920 928L1920 1081L1646 1081L1371 1081L1097 1081L823 1081L549 1081L274 1081L0 1081Z" fill="#3c9f3a"></path><path d="M0 952L274 964L549 991L823 925L1097 959L1371 962L1646 985L1920 942L1920 1081L1646 1081L1371 1081L1097 1081L823 1081L549 1081L274 1081L0 1081Z" fill="#3a962e"></path><path d="M0 1011L274 961L549 948L823 973L1097 993L1371 1003L1646 1009L1920 956L1920 1081L1646 1081L1371 1081L1097 1081L823 1081L549 1081L274 1081L0 1081Z" fill="#398c21"></path><path d="M0 982L274 1037L549 988L823 1001L1097 983L1371 1018L1646 1010L1920 1040L1920 1081L1646 1081L1371 1081L1097 1081L823 1081L549 1081L274 1081L0 1081Z" fill="#378313"></path><path d="M0 1053L274 1029L549 1060L823 1051L1097 1044L1371 1026L1646 1047L1920 1051L1920 1081L1646 1081L1371 1081L1097 1081L823 1081L549 1081L274 1081L0 1081Z" fill="#357a00"></path></svg>